{
  "accessors": [
    {
      "bufferView": 2,
      "componentType": 5126,
      "count": 223,
      "max": [
        1.7281427383422852,
        21.695749282836914,
        1.7281410694122314
      ],
      "min": [
        -1.7281436920166016,
        18.843217849731445,
        -1.7281407117843628
      ],
      "type": "VEC3"
    },
    {
      "bufferView": 2,
      "byteOffset": 2676,
      "componentType": 5126,
      "count": 223,
      "max": [
        0.9783161282539368,
        1.0,
        0.9783164858818054
      ],
      "min": [
        -0.9783158302307129,
        -0.6562407612800598,
        -0.9783164262771606
      ],
      "type": "VEC3"
    },
    {
      "bufferView": 1,
      "componentType": 5126,
      "count": 223,
      "max": [
        0.9999980926513672,
        1.0
      ],
      "min": [
        9.113360306400864e-07,
        0.8999987840652466
      ],
      "type": "VEC2"
    },
    {
      "bufferView": 0,
      "componentType": 5125,
      "count": 303,
      "type": "SCALAR"
    },
    {
      "bufferView": 2,
      "byteOffset": 5352,
      "componentType": 5126,
      "count": 534,
      "max": [
        6.257730484008789,
        21.69574737548828,
        6.25773286819458
      ],
      "min": [
        -6.25773286819458,
        1.180396556854248,
        -6.2577338218688965
      ],
      "type": "VEC3"
    },
    {
      "bufferView": 2,
      "byteOffset": 11760,
      "componentType": 5126,
      "count": 534,
      "max": [
        1.0,
        1.0,
        1.0
      ],
      "min": [
        -1.0,
        -1.0,
        -1.0
      ],
      "type": "VEC3"
    },
    {
      "bufferView": 1,
      "byteOffset": 1784,
      "componentType": 5126,
      "count": 534,
      "max": [
        0.9999996423721313,
        1.0
      ],
      "min": [
        2.2633139451500028e-07,
        5.770023108198075e-06
      ],
      "type": "VEC2"
    },
    {
      "bufferView": 0,
      "byteOffset": 1212,
      "componentType": 5125,
      "count": 2418,
      "type": "SCALAR"
    },
    {
      "bufferView": 2,
      "byteOffset": 18168,
      "componentType": 5126,
      "count": 439,
      "max": [
        5.905236721038818,
        12.18178939819336,
        6.136302947998047
      ],
      "min": [
        -5.905238151550293,
        1.1411242485046387,
        -5.674173831939697
      ],
      "type": "VEC3"
    },
    {
      "bufferView": 2,
      "byteOffset": 23436,
      "componentType": 5126,
      "count": 439,
      "max": [
        1.0,
        0.9950364232063293,
        1.0
      ],
      "min": [
        -1.0,
        -1.0,
        -1.0
      ],
      "type": "VEC3"
    },
    {
      "bufferView": 1,
      "byteOffset": 6056,
      "componentType": 5126,
      "count": 439,
      "max": [
        1.0000001192092896,
        1.0
      ],
      "min": [
        0.0,
        0.0
      ],
      "type": "VEC2"
    },
    {
      "bufferView": 0,
      "byteOffset": 10884,
      "componentType": 5125,
      "count": 2280,
      "type": "SCALAR"
    },
    {
      "bufferView": 3,
      "componentType": 5126,
      "count": 1,
      "max": [
        0.0416666679084301
      ],
      "min": [
        0.0416666679084301
      ],
      "type": "SCALAR"
    },
    {
      "bufferView": 4,
      "componentType": 5126,
      "count": 1,
      "max": [
        0.0,
        6.671262741088867,
        -0.14427758753299713
      ],
      "min": [
        0.0,
        6.671262741088867,
        -0.14427758753299713
      ],
      "type": "VEC3"
    },
    {
      "bufferView": 3,
      "byteOffset": 4,
      "componentType": 5126,
      "count": 1,
      "max": [
        0.0416666679084301
      ],
      "min": [
        0.0416666679084301
      ],
      "type": "SCALAR"
    },
    {
      "bufferView": 4,
      "byteOffset": 12,
      "componentType": 5126,
      "count": 1,
      "max": [
        5.043466567993164,
        5.043466567993164,
        5.043466567993164
      ],
      "min": [
        5.043466567993164,
        5.043466567993164,
        5.043466567993164
      ],
      "type": "VEC3"
    }
  ],
  "animations": [
    {
      "channels": [
        {
          "sampler": 0,
          "target": {
            "node": 6,
            "path": "translation"
          }
        },
        {
          "sampler": 1,
          "target": {
            "node": 6,
            "path": "scale"
          }
        }
      ],
      "name": "Take 001",
      "samplers": [
        {
          "input": 12,
          "interpolation": "LINEAR",
          "output": 13
        },
        {
          "input": 14,
          "interpolation": "LINEAR",
          "output": 15
        }
      ]
    }
  ],
  "asset": {
    "extras": {
      "author": "Gabriela_Ojeda (https://sketchfab.com/Gabriela_Ojeda)",
      "license": "CC-BY-4.0 (http://creativecommons.org/licenses/by/4.0/)",
      "source": "https://sketchfab.com/3d-models/purple-potion-0c701785c7ab4609a5b666bff0f26139",
      "title": "Purple Potion"
    },
    "generator": "Sketchfab-12.67.0",
    "version": "2.0"
  },
  "bufferViews": [
    {
      "buffer": 0,
      "byteLength": 20004,
      "name": "floatBufferViews",
      "target": 34963
    },
    {
      "buffer": 0,
      "byteLength": 9568,
      "byteOffset": 20004,
      "byteStride": 8,
      "name": "floatBufferViews",
      "target": 34962
    },
    {
      "buffer": 0,
      "byteLength": 28704,
      "byteOffset": 29572,
      "byteStride": 12,
      "name": "floatBufferViews",
      "target": 34962
    },
    {
      "buffer": 0,
      "byteLength": 8,
      "byteOffset": 58276,
      "name": "floatBufferViews"
    },
    {
      "buffer": 0,
      "byteLength": 24,
      "byteOffset": 58284,
      "byteStride": 12,
      "name": "floatBufferViews"
    }
  ],
  "buffers": [
    {
      "byteLength": 58308,
      "uri": "scene.bin"
    }
  ],
  "materials": [
    {
      "doubleSided": true,
      "name": "lambert3",
      "pbrMetallicRoughness": {
        "baseColorFactor": [
          0.583040501764196,
          0.31932759434275026,
          0.06005751690168973,
          1.0
        ],
        "metallicFactor": 0.0
      }
    },
    {
      "alphaMode": "BLEND",
      "doubleSided": true,
      "name": "lambert2",
      "pbrMetallicRoughness": {
        "baseColorFactor": [
          0.583040501764196,
          1.0,
          0.9619491654316741,
          0.5246049407487126
        ],
        "metallicFactor": 0.0,
        "roughnessFactor": 0.0
      }
    },
    {
      "doubleSided": true,
      "emissiveFactor": [
        0.5967829758210572,
        0.0,
        1.0
      ],
      "name": "lambert1",
      "pbrMetallicRoughness": {
        "baseColorFactor": [
          0.40990987343506013,
          0.0,
          1.0,
          1.0
        ],
        "metallicFactor": 0.0,
        "roughnessFactor": 0.16530622792137117
      }
    }
  ],
  "meshes": [
    {
      "name": "pSphere3_lambert3_0",
      "primitives": [
        {
          "attributes": {
            "NORMAL": 1,
            "POSITION": 0,
            "TEXCOORD_0": 2
          },
          "indices": 3,
          "material": 0,
          "mode": 4
        }
      ]
    },
    {
      "name": "pSphere3_lambert2_0",
      "primitives": [
        {
          "attributes": {
            "NORMAL": 5,
            "POSITION": 4,
            "TEXCOORD_0": 6
          },
          "indices": 7,
          "material": 1,
          "mode": 4
        }
      ]
    },
    {
      "name": "pSphere3_lambert1_0",
      "primitives": [
        {
          "attributes": {
            "NORMAL": 9,
            "POSITION": 8,
            "TEXCOORD_0": 10
          },
          "indices": 11,
          "material": 2,
          "mode": 4
        }
      ]
    }
  ],
  "nodes": [
    {
      "children": [
        1
      ],
      "matrix": [
        1.0,
        0.0,
        0.0,
        0.0,
        0.0,
        2.220446049250313e-16,
        -1.0,
        0.0,
        0.0,
        1.0,
        2.220446049250313e-16,
        0.0,
        0.0,
        0.0,
        0.0,
        1.0
      ],
      "name": "Sketchfab_model"
    },
    {
      "children": [
        2
      ],
      "matrix": [
        0.009999999776482582,
        0.0,
        0.0,
        0.0,
        0.0,
        0.0,
        0.009999999776482582,
        0.0,
        0.0,
        -0.009999999776482582,
        0.0,
        0.0,
        0.0,
        0.0,
        0.0,
        1.0
      ],
      "name": "b0a3777a04ad4ef0916570294eff3a51.fbx"
    },
    {
      "children": [
        3
      ],
      "name": "Object_2"
    },
    {
      "children": [
        4,
        6,
        8
      ],
      "name": "RootNode"
    },
    {
      "children": [
        5
      ],
      "name": "pSphere1",
      "scale": [
        6.257734775543213,
        6.257734775543213,
        6.257734775543213
      ],
      "translation": [
        0.0,
        7.097110271453857,
        0.0
      ]
    },
    {
      "name": "transform2"
    },
    {
      "children": [
        7
      ],
      "name": "pSphere2",
      "scale": [
        5.905236721038818,
        5.86310338973999,
        5.905236721038818
      ],
      "translation": [
        0.0,
        7.050817966461182,
        0.23106591403484344
      ]
    },
    {
      "name": "transform1"
    },
    {
      "children": [
        9,
        10,
        11
      ],
      "name": "pSphere3"
    },
    {
      "mesh": 0,
      "name": "pSphere3_lambert3_0"
    },
    {
      "mesh": 1,
      "name": "pSphere3_lambert2_0"
    },
    {
      "mesh": 2,
      "name": "pSphere3_lambert1_0"
    }
  ],
  "scene": 0,
  "scenes": [
    {
      "name": "Sketchfab_Scene",
      "nodes": [
        0
      ]
    }
  ]
}
