{
  "accessors": [
    {
      "bufferView": 2,
      "componentType": 5126,
      "count": 1617,
      "max": [
        8.103907585144043,
        6.200381278991699,
        1.8666678667068481
      ],
      "min": [
        -1.1061103343963623,
        0.09970349073410034,
        -5.488136291503906
      ],
      "type": "VEC3"
    },
    {
      "bufferView": 2,
      "byteOffset": 19404,
      "componentType": 5126,
      "count": 1617,
      "max": [
        0.9932923913002014,
        0.998707115650177,
        1.0
      ],
      "min": [
        -0.998479962348938,
        -0.9999650716781616,
        -1.0
      ],
      "type": "VEC3"
    },
    {
      "bufferView": 1,
      "componentType": 5126,
      "count": 1617,
      "max": [
        0.9880358576774597,
        0.9916559457778931
      ],
      "min": [
        0.01623416319489479,
        0.18734322488307953
      ],
      "type": "VEC2"
    },
    {
      "bufferView": 0,
      "componentType": 5125,
      "count": 2448,
      "type": "SCALAR"
    },
    {
      "bufferView": 2,
      "byteOffset": 38808,
      "componentType": 5126,
      "count": 680,
      "max": [
        5.8508076667785645,
        5.417693614959717,
        0.8602093458175659
      ],
      "min": [
        -3.783020496368408,
        3.644695281982422,
        -4.430789470672607
      ],
      "type": "VEC3"
    },
    {
      "bufferView": 2,
      "byteOffset": 46968,
      "componentType": 5126,
      "count": 680,
      "max": [
        1.0,
        0.9697182774543762,
        1.0
      ],
      "min": [
        -1.0,
        -0.9867668151855469,
        -0.9748222827911377
      ],
      "type": "VEC3"
    },
    {
      "bufferView": 1,
      "byteOffset": 12936,
      "componentType": 5126,
      "count": 680,
      "max": [
        0.8264797925949097,
        0.7081232070922852
      ],
      "min": [
        0.4197831153869629,
        0.15813471376895905
      ],
      "type": "VEC2"
    },
    {
      "bufferView": 0,
      "byteOffset": 9792,
      "componentType": 5125,
      "count": 1008,
      "type": "SCALAR"
    },
    {
      "bufferView": 2,
      "byteOffset": 55128,
      "componentType": 5126,
      "count": 606,
      "max": [
        7.120466232299805,
        3.0529563426971436,
        1.8483154773712158
      ],
      "min": [
        -1.7331948280334473,
        -0.3204927444458008,
        -5.398068904876709
      ],
      "type": "VEC3"
    },
    {
      "bufferView": 2,
      "byteOffset": 62400,
      "componentType": 5126,
      "count": 606,
      "max": [
        0.9101831316947937,
        0.9254093766212463,
        0.999477207660675
      ],
      "min": [
        -0.9101825952529907,
        -0.9254093170166016,
        -0.999477207660675
      ],
      "type": "VEC3"
    },
    {
      "bufferView": 1,
      "byteOffset": 18376,
      "componentType": 5126,
      "count": 606,
      "max": [
        0.9673135280609131,
        0.29506760835647583
      ],
      "min": [
        0.04296383261680603,
        0.005105213727802038
      ],
      "type": "VEC2"
    },
    {
      "bufferView": 0,
      "byteOffset": 13824,
      "componentType": 5125,
      "count": 912,
      "type": "SCALAR"
    },
    {
      "bufferView": 2,
      "byteOffset": 69672,
      "componentType": 5126,
      "count": 102,
      "max": [
        -1.1670840978622437,
        6.182807922363281,
        -0.7430301308631897
      ],
      "min": [
        -3.457892417907715,
        4.024271011352539,
        -3.167628765106201
      ],
      "type": "VEC3"
    },
    {
      "bufferView": 2,
      "byteOffset": 70896,
      "componentType": 5126,
      "count": 102,
      "max": [
        0.925033688545227,
        0.9226021766662598,
        0.9182045459747314
      ],
      "min": [
        -0.8979097008705139,
        -0.9488794803619385,
        -0.9189187288284302
      ],
      "type": "VEC3"
    },
    {
      "bufferView": 1,
      "byteOffset": 23224,
      "componentType": 5126,
      "count": 102,
      "max": [
        0.9880179166793823,
        0.3854479491710663
      ],
      "min": [
        0.6734637022018433,
        0.164195716381073
      ],
      "type": "VEC2"
    },
    {
      "bufferView": 0,
      "byteOffset": 17472,
      "componentType": 5125,
      "count": 156,
      "type": "SCALAR"
    }
  ],
  "asset": {
    "extras": {
      "author": "Bargas (https://sketchfab.com/Bargas)",
      "license": "CC-BY-4.0 (http://creativecommons.org/licenses/by/4.0/)",
      "source": "https://sketchfab.com/3d-models/catapult-e17567b2443d470ab96ace279eaeb04f",
      "title": "Catapult"
    },
    "generator": "Sketchfab-12.65.0",
    "version": "2.0"
  },
  "bufferViews": [
    {
      "buffer": 0,
      "byteLength": 18096,
      "name": "floatBufferViews",
      "target": 34963
    },
    {
      "buffer": 0,
      "byteLength": 24040,
      "byteOffset": 18096,
      "byteStride": 8,
      "name": "floatBufferViews",
      "target": 34962
    },
    {
      "buffer": 0,
      "byteLength": 72120,
      "byteOffset": 42136,
      "byteStride": 12,
      "name": "floatBufferViews",
      "target": 34962
    }
  ],
  "buffers": [
    {
      "byteLength": 114256,
      "uri": "scene.bin"
    }
  ],
  "images": [
    {
      "uri": "textures/Material.001_baseColor.png"
    }
  ],
  "materials": [
    {
      "doubleSided": true,
      "name": "Material.001",
      "pbrMetallicRoughness": {
        "baseColorTexture": {
          "index": 0
        },
        "metallicFactor": 0.0,
        "roughnessFactor": 0.5
      }
    },
    {
      "doubleSided": true,
      "name": "Metalix",
      "pbrMetallicRoughness": {
        "baseColorTexture": {
          "index": 0
        },
        "metallicFactor": 0.972727,
        "roughnessFactor": 0.17727299999999999
      }
    },
    {
      "doubleSided": true,
      "name": "WoodWheels",
      "pbrMetallicRoughness": {
        "baseColorTexture": {
          "index": 0
        },
        "metallicFactor": 0.0
      }
    },
    {
      "doubleSided": true,
      "name": "Rock",
      "pbrMetallicRoughness": {
        "baseColorTexture": {
          "index": 0
        },
        "metallicFactor": 0.0
      }
    }
  ],
  "meshes": [
    {
      "name": "Object_0",
      "primitives": [
        {
          "attributes": {
            "NORMAL": 1,
            "POSITION": 0,
            "TEXCOORD_0": 2
          },
          "indices": 3,
          "material": 0,
          "mode": 4
        }
      ]
    },
    {
      "name": "Object_1",
      "primitives": [
        {
          "attributes": {
            "NORMAL": 5,
            "POSITION": 4,
            "TEXCOORD_0": 6
          },
          "indices": 7,
          "material": 1,
          "mode": 4
        }
      ]
    },
    {
      "name": "Object_2",
      "primitives": [
        {
          "attributes": {
            "NORMAL": 9,
            "POSITION": 8,
            "TEXCOORD_0": 10
          },
          "indices": 11,
          "material": 2,
          "mode": 4
        }
      ]
    },
    {
      "name": "Object_3",
      "primitives": [
        {
          "attributes": {
            "NORMAL": 13,
            "POSITION": 12,
            "TEXCOORD_0": 14
          },
          "indices": 15,
          "material": 3,
          "mode": 4
        }
      ]
    }
  ],
  "nodes": [
    {
      "children": [
        1
      ],
      "matrix": [
        1.0,
        0.0,
        0.0,
        0.0,
        0.0,
        2.220446049250313e-16,
        -1.0,
        0.0,
        0.0,
        1.0,
        2.220446049250313e-16,
        0.0,
        0.0,
        0.0,
        0.0,
        1.0
      ],
      "name": "Sketchfab_model"
    },
    {
      "children": [
        2
      ],
      "name": "root"
    },
    {
      "children": [
        3
      ],
      "matrix": [
        1.0,
        0.0,
        0.0,
        0.0,
        0.0,
        2.220446049250313e-16,
        1.0,
        0.0,
        0.0,
        -1.0,
        2.220446049250313e-16,
        0.0,
        0.0,
        0.0,
        0.0,
        1.0
      ],
      "name": "GLTF_SceneRootNode"
    },
    {
      "children": [
        4,
        5,
        6,
        7
      ],
      "name": "Catapult Cartoon_0"
    },
    {
      "mesh": 0,
      "name": "Object_4"
    },
    {
      "mesh": 1,
      "name": "Object_5"
    },
    {
      "mesh": 2,
      "name": "Object_6"
    },
    {
      "mesh": 3,
      "name": "Object_7"
    }
  ],
  "samplers": [
    {
      "magFilter": 9729,
      "minFilter": 9987,
      "wrapS": 10497,
      "wrapT": 10497
    }
  ],
  "scene": 0,
  "scenes": [
    {
      "name": "Sketchfab_Scene",
      "nodes": [
        0
      ]
    }
  ],
  "textures": [
    {
      "sampler": 0,
      "source": 0
    }
  ]
}
